<?xml version="1.0" encoding="utf-8"?>
<!-- Generator: Adobe Illustrator 17.0.0, SVG Export Plug-In . SVG Version: 6.00 Build 0)  -->
<!DOCTYPE svg PUBLIC "-//W3C//DTD SVG 1.1//EN" "http://www.w3.org/Graphics/SVG/1.1/DTD/svg11.dtd">
<svg version="1.1" id="Layer_1" xmlns="http://www.w3.org/2000/svg" xmlns:xlink="http://www.w3.org/1999/xlink" x="0px" y="0px"
	 width="90px" height="60px" viewBox="0 0 90 60" enable-background="new 0 0 90 60" xml:space="preserve">
<rect fill="#BAC1C9" width="90" height="60"/>
<rect x="34" y="7" fill="#FFFFFF" width="49" height="13"/>
<rect x="34" y="24" fill="#FFFFFF" width="49" height="13"/>
<rect x="34" y="41" fill="#FFFFFF" width="49" height="13"/>
<rect x="7" y="7" fill="#FFFFFF" width="23" height="13"/>
<rect x="7" y="24" fill="#FFFFFF" width="23" height="13"/>
<rect x="7" y="41" fill="#FFFFFF" width="23" height="13"/>
<rect x="40" y="8" fill="#BAC1C9" width="39" height="2"/>
<rect x="36" y="12" fill="#BAC1C9" width="43" height="2"/>
<rect x="36" y="16" fill="#BAC1C9" width="37" height="2"/>
<rect x="40" y="25" fill="#BAC1C9" width="32" height="2"/>
<rect x="36" y="29" fill="#BAC1C9" width="43" height="2"/>
<rect x="36" y="33" fill="#BAC1C9" width="45" height="2"/>
<rect x="36" y="42" fill="#BAC1C9" width="43" height="2"/>
<rect x="42" y="46" fill="#BAC1C9" width="37" height="2"/>
<rect x="36" y="50" fill="#BAC1C9" width="43" height="2"/>
</svg>
