<?xml version="1.0" encoding="utf-8"?>
<!-- Generator: Adobe Illustrator 17.0.0, SVG Export Plug-In . SVG Version: 6.00 Build 0)  -->
<!DOCTYPE svg PUBLIC "-//W3C//DTD SVG 1.1//EN" "http://www.w3.org/Graphics/SVG/1.1/DTD/svg11.dtd">
<svg version="1.1" id="Layer_1" xmlns="http://www.w3.org/2000/svg" xmlns:xlink="http://www.w3.org/1999/xlink" x="0px" y="0px"
	 width="90px" height="70px" viewBox="0 0 90 70" enable-background="new 0 0 90 70" xml:space="preserve">
<symbol  id="Loading_2" viewBox="-18 -17.999 36 35.998">
	<path fill="#231F20" d="M3.6,14.399c0-1.986-1.611-3.6-3.6-3.6c-1.987,0-3.6,1.613-3.6,3.6c0,1.988,1.612,3.6,3.6,3.6
		S3.6,16.388,3.6,14.399z"/>
	<path fill="#BBBDBF" d="M-7.636,12.729c1.406-1.406,1.406-3.686,0-5.092s-3.686-1.406-5.092,0c-1.405,1.406-1.405,3.686,0,5.092
		C-11.321,14.134-9.042,14.134-7.636,12.729z"/>
	<path fill="#A6A8AB" d="M-14.398,3.601c1.987,0,3.6-1.611,3.6-3.6c0-1.988-1.612-3.6-3.6-3.6s-3.6,1.611-3.602,3.6
		C-18,1.989-16.387,3.601-14.398,3.601z"/>
	<path fill="#929497" d="M-12.727-7.634c1.405,1.404,3.685,1.404,5.091,0c1.406-1.408,1.406-3.688,0-5.094
		c-1.406-1.404-3.686-1.402-5.092,0C-14.134-11.321-14.133-9.04-12.727-7.634z"/>
	<path fill="#808284" d="M-3.6-14.398c0,1.988,1.612,3.6,3.599,3.6c1.989,0,3.601-1.611,3.603-3.601
		C3.6-16.386,1.988-17.997,0-17.999C-1.987-17.999-3.599-16.386-3.6-14.398z"/>
	<path fill="#6D6E70" d="M7.635-12.726c-1.404,1.404-1.402,3.684,0,5.09c1.408,1.406,3.688,1.406,5.092,0
		c1.406-1.404,1.406-3.686,0.002-5.09C11.322-14.132,9.043-14.13,7.635-12.726z"/>
	<path fill="#58595B" d="M14.398-3.601c-1.988,0.002-3.598,1.613-3.6,3.602c0.002,1.988,1.611,3.6,3.602,3.6
		c1.987,0,3.599-1.611,3.6-3.598C18-1.987,16.388-3.599,14.398-3.601z"/>
	<path fill="#404041" d="M12.727,7.638c-1.404-1.406-3.684-1.406-5.09,0c-1.404,1.406-1.406,3.686,0,5.092
		c1.406,1.404,3.686,1.406,5.09,0C14.133,11.323,14.133,9.044,12.727,7.638z"/>
</symbol>
<rect fill="#FFFFFF" width="90" height="70"/>
<rect x="7" y="7" fill="#495159" width="23" height="13"/>
<rect x="34" y="7" fill="#495159" width="23" height="13"/>
<rect x="61" y="7" fill="#495159" width="22" height="13"/>
<rect x="7" y="24" fill="#495159" width="23" height="13"/>
<rect x="34" y="24" fill="#495159" width="23" height="13"/>
<rect x="61" y="24" fill="#495159" width="22" height="13"/>
<rect x="7" y="41" fill="#495159" width="23" height="13"/>
<rect x="34" y="41" fill="#495159" width="23" height="13"/>
<rect x="61" y="41" fill="#495159" width="22" height="13"/>
<g id="Layer_2">
	
		<use xlink:href="#Loading_2"  width="36" height="35.998" x="-18" y="-17.999" transform="matrix(0.3326 0 0 -0.3326 45.5 62.0129)" overflow="visible"/>
</g>
</svg>
