<?xml version="1.0" encoding="utf-8"?>
<!-- Generator: Adobe Illustrator 17.0.0, SVG Export Plug-In . SVG Version: 6.00 Build 0)  -->
<!DOCTYPE svg PUBLIC "-//W3C//DTD SVG 1.1//EN" "http://www.w3.org/Graphics/SVG/1.1/DTD/svg11.dtd">
<svg version="1.1" id="Layer_1" xmlns="http://www.w3.org/2000/svg" xmlns:xlink="http://www.w3.org/1999/xlink" x="0px" y="0px"
	 width="90px" height="70px" viewBox="0 0 90 70" enable-background="new 0 0 90 70" xml:space="preserve">
<rect fill="#FFFFFF" width="90" height="70"/>
<rect x="7" y="7" fill="#495159" width="23" height="13"/>
<rect x="34" y="7" fill="#495159" width="23" height="13"/>
<rect x="61" y="7" fill="#495159" width="22" height="13"/>
<rect x="7" y="24" fill="#495159" width="23" height="13"/>
<rect x="34" y="24" fill="#495159" width="23" height="13"/>
<rect x="61" y="24" fill="#495159" width="22" height="13"/>
<rect x="7" y="41" fill="#495159" width="23" height="13"/>
<rect x="34" y="41" fill="#495159" width="23" height="13"/>
<rect x="61" y="41" fill="#495159" width="22" height="13"/>
<path fill="#69757F" d="M63,62.563C63,63.909,61.909,65,60.563,65H28.438C27.091,65,26,63.909,26,62.563v-0.125
	C26,61.091,27.091,60,28.438,60h32.125C61.909,60,63,61.091,63,62.438V62.563z"/>
</svg>
