<?xml version="1.0" encoding="utf-8"?>
<!-- Generator: Adobe Illustrator 17.0.0, SVG Export Plug-In . SVG Version: 6.00 Build 0)  -->
<!DOCTYPE svg PUBLIC "-//W3C//DTD SVG 1.1//EN" "http://www.w3.org/Graphics/SVG/1.1/DTD/svg11.dtd">
<svg version="1.1" xmlns="http://www.w3.org/2000/svg" xmlns:xlink="http://www.w3.org/1999/xlink" x="0px" y="0px" width="90px"
	 height="70px" viewBox="0 0 90 70" enable-background="new 0 0 90 70" xml:space="preserve">
<g id="Layer_1">
	<rect fill="#FFFFFF" width="90" height="70"/>
	<rect x="7" y="7" fill="#495159" width="23" height="13"/>
	<rect x="34" y="7" fill="#495159" width="23" height="13"/>
	<rect x="61" y="7" fill="#495159" width="22" height="13"/>
	<rect x="7" y="24" fill="#495159" width="23" height="13"/>
	<rect x="34" y="24" fill="#495159" width="23" height="13"/>
	<rect x="61" y="24" fill="#495159" width="22" height="13"/>
	<rect x="7" y="41" fill="#495159" width="23" height="13"/>
	<rect x="34" y="41" fill="#495159" width="23" height="13"/>
	<rect x="61" y="41" fill="#495159" width="22" height="13"/>
	<g id="Delete">
		<polygon fill="#E54343" points="48.04,56.091 45,59.131 41.96,56.092 39.354,58.697 42.394,61.737 39.354,64.777 41.96,67.383 
			45,64.342 48.04,67.383 50.646,64.777 47.606,61.737 50.646,58.697 		"/>
	</g>
</g>
<g id="Layer_2_1_">
</g>
</svg>
