<?xml version="1.0" encoding="utf-8"?>
<!-- Generator: Adobe Illustrator 17.0.0, SVG Export Plug-In . SVG Version: 6.00 Build 0)  -->
<!DOCTYPE svg PUBLIC "-//W3C//DTD SVG 1.1//EN" "http://www.w3.org/Graphics/SVG/1.1/DTD/svg11.dtd">
<svg version="1.1" id="Layer_1" xmlns="http://www.w3.org/2000/svg" xmlns:xlink="http://www.w3.org/1999/xlink" x="0px" y="0px"
	 width="90px" height="70px" viewBox="0 0 90 70" enable-background="new 0 0 90 70" xml:space="preserve">
<rect fill="#BAC1C9" width="90" height="70"/>
<rect x="7" y="7" fill="#FFFFFF" width="23" height="13"/>
<rect x="34" y="7" fill="#FFFFFF" width="23" height="13"/>
<rect x="61" y="7" fill="#FFFFFF" width="22" height="13"/>
<rect x="7" y="24" fill="#FFFFFF" width="23" height="13"/>
<rect x="34" y="24" fill="#FFFFFF" width="23" height="13"/>
<rect x="61" y="24" fill="#FFFFFF" width="22" height="13"/>
<rect x="7" y="41" fill="#FFFFFF" width="23" height="13"/>
<rect x="34" y="41" fill="#FFFFFF" width="23" height="13"/>
<rect x="61" y="41" fill="#FFFFFF" width="22" height="13"/>
<text transform="matrix(1 0 0 1 28.75 64.25)" fill="#FFFFFF" font-family="'FontAwesome'" font-size="6"></text>
<text transform="matrix(1 0 0 1 37.375 64.25)" fill="#FFFFFF" font-family="'FontAwesome'" font-size="6"></text>
<text transform="matrix(1 0 0 1 46.5 64.25)" fill="#FFFFFF" font-family="'FontAwesome'" font-size="6"></text>
<text transform="matrix(1 0 0 1 55.5 64.25)" fill="#FFFFFF" font-family="'FontAwesome'" font-size="6"></text>
</svg>
